<svg width="600" height="493" xmlns="http://www.w3.org/2000/svg" xmlns:xlink="http://www.w3.org/1999/xlink">
 <g>
  <g id="svg_23">
   <g id="svg_4">
    <path fill="rgb(24,38,63)" d="m0,80 l240,0 l80,90 l-220,250 l-100,-125"/>
    <use xlink:href="#svg_2" transform="matrix(0.449368 0 0 0.449327 -5.92305 -154.442)" height="669.651px" width="867.625px" y="538.63058" x="-186.89546" id="svg_6"/>
    <g transform="matrix(0.0522583 0 0 0.21292 19.8544 -518.541)" id="svg_19">
     <rect fill="rgb(39,77,130)" height="135.721" width="3500.78" y="3761.21195" x="-188.84758" id="svg_24"/>
    </g>
    <g transform="matrix(0.0404821 0 0 0.21292 76.048 -494.596)" id="svg_25">
     <rect fill="rgb(39,77,130)" height="135.721" width="3500.78" y="3761.21195" x="-1140.71001" id="svg_26"/>
    </g>
    <g transform="matrix(0.021662 0 0 0.0599315 234.92 846.624)" id="svg_27">
     <rect fill="rgb(39,77,130)" height="135.721" width="3500.78" y="-9541.35442" x="-4810.4831" id="svg_28"/>
    </g>
    <g transform="matrix(0.0773785 -0.0446744 0.200678 0.347583 -1886.46 -1621.22)" id="svg_29">
     <rect fill="rgb(39,77,130)" height="135.721" width="3500.78" y="6365.15579" x="7634.95782" id="svg_30"/>
    </g>
    <g transform="matrix(0.0495891 -0.0286306 0.0412214 0.0713981 -435.94 735.416)" id="svg_31">
     <rect fill="rgb(39,77,130)" height="135.721" width="3500.78" y="-3720.00627" x="10185.61825" id="svg_32"/>
    </g>
    <g transform="matrix(0.0495891 -0.0286306 0.0412214 0.0713981 -441.588 728.841)" id="svg_33">
     <rect fill="rgb(39,77,130)" height="135.721" width="3500.78" y="-3720.00627" x="10185.61825" id="svg_34"/>
    </g>
    <g transform="matrix(0.0495891 -0.0286306 0.0412214 0.0713981 -447.185 723.701)" id="svg_35">
     <rect fill="rgb(39,77,130)" height="135.721" width="3500.78" y="-3720.00627" x="10185.61825" id="svg_36"/>
    </g>
    <g transform="matrix(0.0524421 -0.0302774 0.0324653 0.0562315 -360.578 882.333)" id="svg_37">
     <rect fill="rgb(39,77,130)" height="135.721" width="3500.78" y="-7143.30368" x="9799.29477" id="svg_38"/>
    </g>
    <g transform="matrix(0.0544553 -0.0314398 0.0324653 0.0562315 -362.376 892.045)" id="svg_39">
     <rect fill="rgb(39,77,130)" height="135.721" width="3500.78" y="-7143.30143" x="9551.01383" id="svg_40"/>
    </g>
    <g transform="matrix(0.0582311 -0.0336199 0.0412214 0.0713981 -449.365 768.264)" id="svg_41">
     <rect fill="rgb(39,77,130)" height="135.721" width="3500.78" y="-3720.01157" x="9131.584" id="svg_42"/>
    </g>
    <g transform="matrix(0.017497 -0.0101018 0.133419 0.231086 -897.954 -806.94)" id="svg_43">
     <rect fill="rgb(39,77,130)" height="135.721" width="3500.78" y="5050.82903" x="23212.73971" id="svg_44"/>
    </g>
    <use transform="matrix(0.449561 0 0 0.449561 51.3243 1270.69)" href="#svg_1" height="842px" width="1045px" y="-2700.67345" x="-396.56727" xlink:href="#svg_1" id="svg_45"/>
    <g transform="matrix(0.457149 0 0 0.457149 -424.954 -986.171)" id="svg_46">
     <path fill="rgb(48,104,183)" d="m1451.00651,2299.78251l-574.56,0l-209.92,208.84l476.59,573.91l38.02,-42.66l471.76,-529.29l-201.89,-210.8zm-20.99,49.17l155.94,162.83l-441.52,495.37l-411.37,-495.37l163.67,-162.83l533.28,0z" id="svg_47"/>
    </g>
    
   </g>
   <rect stroke-width="0" rx="2" id="svg_3" height="27.98053" width="175.87767" y="64.2839" x="332.54104" fill="#384650"/>
   <rect stroke-width="0" rx="2" id="svg_5" height="27.98053" width="247.82762" y="103.08232" x="375.765" fill="#384650"/>
   <rect stroke-width="0" rx="2" id="svg_7" height="27.98053" width="146.56472" y="146.75828" x="413.50351" fill="#384650"/>
   <rect stroke-width="0" rx="2" id="svg_8" height="27.98053" width="94.60086" y="102.78887" x="634.08611" fill="#7f0000"/>
   <rect stroke-width="0" rx="2" id="svg_9" height="27.98053" width="94.60086" y="146.75828" x="570.72747" fill="#384650"/>
   <rect stroke-width="0" rx="2" id="svg_10" height="27.98053" width="247.82762" y="231.28679" x="384.2382" fill="#7f0000"/>
   <rect stroke-width="0" rx="2" id="svg_11" height="27.98053" width="97.26569" y="191.31459" x="356.39248" fill="#384650"/>
   <rect stroke-width="0" rx="2" id="svg_12" height="27.98053" width="173.21286" y="273.9238" x="282.10302" fill="#384650"/>
   <rect stroke-width="0" rx="2" id="svg_13" height="27.98053" width="99.93049" y="317.59977" x="324.66856" fill="#384650"/>
   <rect stroke-width="0" rx="2" id="svg_14" height="27.98053" width="99.93049" y="318.7192" x="437.9231" fill="#7f0000"/>
   <rect stroke-width="0" rx="2" id="svg_15" height="27.98053" width="97.26569" y="361.27574" x="229.28267" fill="#384650"/>
   <rect stroke-width="0" rx="2" id="svg_16" height="27.98053" width="53.29625" y="401.24793" x="259.928" fill="#384650"/>
   <rect stroke-width="0" rx="2" id="svg_17" height="27.98053" width="99.93049" y="401.24793" x="319.88626" fill="#384650"/>
   <path id="svg_18" d="m640.9004,244.45151l5.75711,-11.51422l15.3523,0l5.75711,11.51422l-5.75711,11.51422l-15.3523,0l-5.75711,-11.51422z" stroke-width="0" fill="#7f0000"/>
   <path id="svg_20" d="m543.96635,332.53463l5.75713,-11.51422l15.3523,0l5.75713,11.51422l-5.75713,11.51422l-15.3523,0l-5.75713,-11.51422z" stroke-width="0" fill="#7f0000"/>
   <path id="svg_21" d="m735.73491,115.82263l5.75713,-11.51422l15.3523,0l5.75713,11.51422l-5.75713,11.51422l-15.3523,0l-5.75713,-11.51422z" stroke-width="0" fill="#7f0000"/>
   <rect stroke-width="0" rx="2" id="svg_22" height="27.98053" width="173.21286" y="360.0939" x="339.00782" fill="#384650"/>
      

  </g>
 </g>
</svg>